<svg width="1408" height="768" viewBox="0 0 1408 768" xmlns="http://www.w3.org/2000/svg">
  <defs>
    <radialGradient id="ocean" cx="48%" cy="42%" r="80%">
      <stop offset="0%" stop-color="#100c1c"/>
      <stop offset="50%" stop-color="#0a0814"/>
      <stop offset="100%" stop-color="#030206"/>
    </radialGradient>
    <linearGradient id="land" x1="0" y1="0" x2="0.3" y2="1">
      <stop offset="0%" stop-color="#332c47"/>
      <stop offset="55%" stop-color="#241f33"/>
      <stop offset="100%" stop-color="#161222"/>
    </linearGradient>
    <linearGradient id="riftLand" x1="0" y1="0" x2="0.3" y2="1">
      <stop offset="0%" stop-color="#2c1d3d"/>
      <stop offset="100%" stop-color="#160c20"/>
    </linearGradient>
    <radialGradient id="landGlow" cx="50%" cy="35%" r="70%">
      <stop offset="0%" stop-color="rgba(167,139,250,0.16)"/>
      <stop offset="100%" stop-color="rgba(167,139,250,0)"/>
    </radialGradient>
    <filter id="softGlow" x="-50%" y="-50%" width="200%" height="200%">
      <feGaussianBlur stdDeviation="5" result="b"/>
      <feMerge><feMergeNode in="b"/><feMergeNode in="SourceGraphic"/></feMerge>
    </filter>
    <filter id="landShadow" x="-20%" y="-20%" width="140%" height="140%">
      <feGaussianBlur stdDeviation="10" result="b"/>
    </filter>
    <pattern id="starfield" width="180" height="180" patternUnits="userSpaceOnUse">
      <circle cx="18" cy="24" r="1" fill="rgba(255,255,255,0.5)"/>
      <circle cx="80" cy="90" r="0.7" fill="rgba(255,255,255,0.3)"/>
      <circle cx="140" cy="20" r="0.9" fill="rgba(167,139,250,0.45)"/>
      <circle cx="110" cy="140" r="0.8" fill="rgba(255,255,255,0.35)"/>
      <circle cx="40" cy="125" r="0.6" fill="rgba(255,255,255,0.25)"/>
      <circle cx="165" cy="65" r="0.7" fill="rgba(167,139,250,0.35)"/>
      <circle cx="60" cy="60" r="0.5" fill="rgba(255,255,255,0.2)"/>
      <circle cx="150" cy="150" r="0.6" fill="rgba(255,255,255,0.28)"/>
    </pattern>
    <radialGradient id="vignette" cx="50%" cy="50%" r="75%">
      <stop offset="60%" stop-color="rgba(0,0,0,0)"/>
      <stop offset="100%" stop-color="rgba(0,0,0,0.55)"/>
    </radialGradient>
  </defs>
  <rect x="0" y="0" width="1408" height="768" fill="url(#ocean)"/>
  <rect x="0" y="0" width="1408" height="768" fill="url(#starfield)"/>
  <ellipse cx="566" cy="269" rx="220" ry="160" fill="url(#landGlow)"/>
  <ellipse cx="1061" cy="461" rx="220" ry="160" fill="url(#landGlow)"/>
  <ellipse cx="451" cy="614" rx="220" ry="160" fill="url(#landGlow)"/>
  <ellipse cx="1239" cy="131" rx="220" ry="160" fill="url(#landGlow)"/>
  <path d="M 125.5 253.1 L 127.9 251.3 L 130.1 249.5 L 132.2 247.7 L 134.1 245.9 L 135.8 244.1 L 137.4 242.3 L 138.8 240.4 L 140.1 238.6 L 141.2 236.7 L 142.5 234.9 L 143.8 233.0 L 145.3 231.2 L 147.0 229.4 L 148.8 227.6 L 150.7 225.8 L 152.7 224.0 L 154.9 222.3 L 157.0 220.5 L 159.0 218.7 L 161.0 216.9 L 162.8 215.1 L 164.6 213.3 L 166.3 211.5 L 167.9 209.6 L 169.4 207.8 L 173.0 205.8 L 178.6 203.6 L 186.4 201.2 L 196.3 198.7 L 208.3 196.0 L 222.3 193.2 L 238.5 190.2 L 256.7 187.0 L 275.0 183.8 L 293.3 180.6 L 311.6 177.4 L 330.0 174.2 L 348.4 171.0 L 366.8 167.8 L 385.3 164.5 L 403.8 161.3 L 422.3 158.2 L 440.7 155.3 L 459.1 152.6 L 477.5 150.0 L 495.9 147.5 L 514.3 145.3 L 532.6 143.1 L 550.9 141.2 L 569.3 139.0 L 587.7 136.5 L 606.2 133.8 L 624.7 130.8 L 643.3 127.5 L 662.0 124.0 L 680.7 120.3 L 699.5 116.3 L 716.0 113.1 L 730.2 110.8 L 742.1 109.3 L 751.7 108.6 L 759.0 108.8 L 764.0 109.8 L 766.6 111.7 L 767.0 114.4 L 767.7 116.9 L 768.7 119.2 L 770.0 121.3 L 771.6 123.2 L 773.5 124.9 L 775.7 126.3 L 778.2 127.6 L 781.0 128.6 L 783.5 129.9 L 785.6 131.4 L 787.4 133.0 L 788.9 134.9 L 790.0 137.0 L 790.8 139.3 L 791.3 141.8 L 791.4 144.5 L 791.8 147.2 L 792.3 149.7 L 793.1 152.0 L 794.0 154.3 L 795.1 156.5 L 796.5 158.5 L 798.0 160.5 L 799.8 162.3 L 801.0 164.1 L 801.8 165.8 L 802.0 167.4 L 801.8 169.0 L 801.0 170.5 L 799.8 172.0 L 798.0 173.3 L 795.7 174.6 L 793.7 175.9 L 792.0 177.0 L 790.6 178.0 L 789.4 178.8 L 788.5 179.6 L 787.8 180.3 L 787.4 180.9 L 787.3 181.3 L 786.8 181.9 L 786.1 182.6 L 784.9 183.5 L 783.5 184.5 L 781.7 185.6 L 779.5 186.9 L 777.0 188.2 L 774.2 189.8 L 771.6 191.2 L 769.1 192.6 L 766.7 194.0 L 764.5 195.3 L 762.4 196.5 L 760.4 197.7 L 758.6 198.8 L 757.0 199.9 L 756.5 201.0 L 757.3 202.2 L 759.2 203.5 L 762.4 204.8 L 766.7 206.2 L 772.2 207.6 L 779.0 209.1 L 786.9 210.7 L 794.6 212.3 L 802.2 214.0 L 809.5 215.7 L 816.7 217.4 L 823.6 219.2 L 830.4 221.0 L 837.0 222.9 L 843.4 224.8 L 849.9 226.7 L 856.6 228.5 L 863.4 230.3 L 870.4 232.1 L 877.5 233.9 L 884.8 235.7 L 892.2 237.4 L 899.7 239.1 L 907.2 240.8 L 914.5 242.5 L 921.8 244.3 L 929.1 246.0 L 936.2 247.7 L 943.2 249.5 L 950.2 251.2 L 957.0 253.0 L 963.2 254.7 L 968.6 256.5 L 973.2 258.2 L 977.1 260.0 L 980.3 261.7 L 982.8 263.5 L 984.5 265.2 L 985.4 266.9 L 986.6 268.7 L 988.1 270.4 L 989.7 272.2 L 991.6 273.9 L 993.8 275.7 L 996.1 277.4 L 998.7 279.2 L 1001.6 280.9 L 1004.3 282.7 L 1007.0 284.5 L 1009.7 286.2 L 1012.2 288.0 L 1014.7 289.8 L 1017.1 291.6 L 1019.5 293.3 L 1021.7 295.1 L 1023.8 296.9 L 1025.8 298.7 L 1027.5 300.4 L 1029.1 302.1 L 1030.6 303.9 L 1031.8 305.6 L 1032.9 307.3 L 1033.8 309.0 L 1032.2 310.8 L 1028.1 312.8 L 1021.5 315.0 L 1012.4 317.3 L 1000.7 319.8 L 986.6 322.4 L 969.9 325.2 L 950.7 328.1 L 931.5 331.1 L 912.4 334.1 L 893.4 337.1 L 874.3 340.2 L 855.4 343.3 L 836.5 346.4 L 817.6 349.6 L 798.8 352.8 L 779.8 356.0 L 760.8 359.1 L 741.6 362.2 L 722.4 365.4 L 703.0 368.5 L 683.5 371.6 L 663.9 374.6 L 644.2 377.7 L 624.6 380.7 L 605.0 383.6 L 585.5 386.5 L 566.0 389.3 L 546.6 392.0 L 527.2 394.7 L 507.8 397.3 L 488.6 399.8 L 471.4 402.1 L 456.4 404.0 L 443.6 405.6 L 432.8 406.8 L 424.2 407.8 L 417.8 408.4 L 413.5 408.7 L 411.3 408.6 L 408.9 408.8 L 406.2 409.2 L 403.3 409.8 L 400.2 410.6 L 396.8 411.6 L 393.1 412.8 L 389.3 414.2 L 385.1 415.8 L 381.2 417.3 L 377.5 418.6 L 373.9 419.7 L 370.5 420.7 L 367.3 421.5 L 364.3 422.2 L 361.5 422.8 L 358.9 423.1 L 356.3 423.5 L 353.6 423.9 L 350.9 424.4 L 348.2 424.8 L 345.5 425.2 L 342.8 425.7 L 340.1 426.2 L 337.3 426.7 L 335.4 426.7 L 334.2 426.1 L 333.9 425.1 L 334.3 423.5 L 335.6 421.4 L 337.6 418.9 L 340.4 415.8 L 344.1 412.1 L 347.8 408.5 L 351.4 404.9 L 355.1 401.3 L 358.9 397.6 L 362.6 394.0 L 366.4 390.3 L 370.1 386.7 L 373.9 383.0 L 377.5 379.5 L 380.7 376.1 L 383.7 372.9 L 386.4 369.8 L 388.8 366.9 L 391.0 364.1 L 392.9 361.4 L 394.5 358.9 L 396.4 356.3 L 398.6 353.4 L 401.1 350.5 L 403.9 347.4 L 407.0 344.1 L 410.4 340.6 L 414.1 337.1 L 418.1 333.3 L 421.2 330.1 L 423.6 327.3 L 425.1 325.1 L 425.8 323.3 L 425.6 322.0 L 424.6 321.2 L 422.8 321.0 L 420.1 321.2 L 417.4 321.4 L 414.6 321.7 L 411.7 321.9 L 408.7 322.2 L 405.7 322.6 L 402.6 322.9 L 399.4 323.3 L 396.2 323.7 L 392.9 324.0 L 389.7 324.4 L 386.6 324.8 L 383.4 325.1 L 380.3 325.5 L 377.1 325.8 L 374.0 326.1 L 371.0 326.5 L 368.1 326.7 L 365.3 327.0 L 362.6 327.2 L 360.2 327.3 L 357.8 327.4 L 355.6 327.5 L 353.6 327.6 L 351.7 327.6 L 349.1 327.3 L 345.7 326.8 L 341.7 326.0 L 337.0 325.0 L 331.5 323.7 L 325.3 322.1 L 318.4 320.3 L 310.8 318.3 L 303.2 316.2 L 295.6 314.1 L 288.1 312.0 L 280.5 309.9 L 272.9 307.8 L 265.3 305.7 L 257.7 303.6 L 250.1 301.4 L 242.7 299.3 L 235.5 297.1 L 228.6 295.0 L 221.8 292.8 L 215.2 290.6 L 208.9 288.4 L 202.7 286.2 L 196.8 284.0 L 190.7 281.9 L 184.4 279.7 L 177.9 277.5 L 171.3 275.3 L 164.4 273.2 L 157.4 271.0 L 150.3 268.9 L 142.9 266.8 L 136.8 264.7 L 131.8 262.6 L 128.1 260.6 L 125.6 258.7 L 124.4 256.8 L 124.3 254.9 Z" fill="rgba(0,0,0,0.5)" filter="url(#landShadow)" transform="translate(6,12)"/>
  <path d="M 924.4 449.6 L 934.0 446.5 L 943.7 443.3 L 953.4 440.2 L 963.2 437.1 L 973.0 434.0 L 982.9 431.0 L 992.8 428.0 L 1002.7 425.0 L 1012.7 422.0 L 1022.7 419.0 L 1032.7 416.0 L 1042.6 412.8 L 1052.6 409.6 L 1062.5 406.4 L 1072.4 403.1 L 1082.3 399.7 L 1092.1 396.3 L 1102.0 392.9 L 1111.8 389.6 L 1121.6 386.3 L 1131.4 383.1 L 1141.2 379.9 L 1150.9 376.8 L 1160.6 373.7 L 1170.3 370.7 L 1178.2 369.0 L 1184.4 368.7 L 1188.9 369.7 L 1191.6 372.1 L 1192.6 375.8 L 1191.9 380.8 L 1189.4 387.2 L 1185.2 394.9 L 1181.2 402.6 L 1177.5 410.2 L 1174.0 417.8 L 1170.7 425.4 L 1167.7 432.9 L 1164.9 440.4 L 1162.4 447.9 L 1160.1 455.3 L 1157.6 462.8 L 1155.0 470.4 L 1152.1 478.0 L 1149.0 485.6 L 1145.7 493.4 L 1142.3 501.2 L 1138.6 509.1 L 1134.7 517.0 L 1130.9 524.8 L 1127.0 532.5 L 1123.0 540.0 L 1119.1 547.4 L 1115.1 554.7 L 1111.2 561.9 L 1107.2 568.9 L 1103.1 575.8 L 1098.8 581.3 L 1094.2 585.5 L 1089.4 588.3 L 1084.2 589.8 L 1078.8 589.9 L 1073.1 588.6 L 1067.1 585.9 L 1060.8 581.9 L 1054.6 577.8 L 1048.5 573.4 L 1042.5 569.0 L 1036.6 564.4 L 1030.8 559.6 L 1025.0 554.7 L 1019.3 549.6 L 1013.7 544.4 L 1008.0 539.3 L 1002.1 534.5 L 996.1 529.8 L 989.9 525.3 L 983.5 520.9 L 977.1 516.8 L 970.4 512.8 L 963.6 509.0 L 956.9 505.1 L 950.3 501.2 L 943.7 497.2 L 937.3 493.1 L 930.9 488.9 L 924.5 484.7 L 918.3 480.4 L 912.1 476.1 L 908.0 471.9 L 905.8 467.8 L 905.5 463.9 L 907.3 460.1 L 911.0 456.5 L 916.7 453.0 Z" fill="rgba(0,0,0,0.5)" filter="url(#landShadow)" transform="translate(6,12)"/>
  <path d="M 183.8 584.2 L 186.7 581.8 L 189.5 579.3 L 192.2 576.8 L 194.9 574.3 L 197.5 571.8 L 200.1 569.2 L 202.5 566.7 L 204.9 564.1 L 207.2 561.5 L 209.6 558.9 L 212.0 556.2 L 214.4 553.6 L 216.9 551.0 L 219.4 548.4 L 222.0 545.7 L 224.6 543.1 L 227.2 540.4 L 230.0 537.9 L 233.0 535.4 L 236.1 532.9 L 239.4 530.6 L 242.8 528.3 L 246.4 526.1 L 250.1 524.0 L 254.0 521.9 L 259.0 520.6 L 264.9 520.1 L 271.9 520.4 L 279.9 521.5 L 288.9 523.3 L 298.9 526.0 L 310.0 529.4 L 322.1 533.7 L 334.1 537.7 L 346.0 541.7 L 357.8 545.4 L 369.6 549.1 L 381.2 552.6 L 392.8 555.9 L 404.3 559.1 L 415.7 562.2 L 427.2 565.4 L 438.8 568.8 L 450.5 572.4 L 462.2 576.2 L 474.1 580.2 L 486.0 584.3 L 498.0 588.6 L 510.1 593.1 L 522.1 597.6 L 534.0 601.9 L 545.8 606.2 L 557.4 610.5 L 569.0 614.6 L 580.5 618.7 L 591.8 622.8 L 603.1 626.7 L 613.3 630.4 L 622.5 633.9 L 630.6 637.1 L 637.7 640.0 L 643.7 642.7 L 648.7 645.1 L 652.6 647.3 L 655.5 649.2 L 658.3 651.1 L 660.8 652.9 L 663.1 654.7 L 665.2 656.4 L 667.1 658.1 L 668.9 659.8 L 670.4 661.4 L 671.7 663.0 L 673.2 664.6 L 674.8 666.2 L 676.5 667.8 L 678.4 669.5 L 680.4 671.2 L 682.5 672.9 L 684.8 674.7 L 687.1 676.4 L 689.7 678.2 L 692.3 680.1 L 695.2 682.0 L 698.1 683.9 L 701.3 685.9 L 704.5 688.0 L 708.0 690.1 L 711.5 692.2 L 712.5 693.6 L 710.8 694.4 L 706.5 694.4 L 699.6 693.7 L 690.0 692.4 L 677.8 690.3 L 663.0 687.6 L 645.6 684.2 L 628.2 680.8 L 610.9 677.6 L 593.6 674.4 L 576.4 671.3 L 559.2 668.4 L 542.1 665.5 L 525.1 662.7 L 508.1 660.0 L 491.2 657.2 L 474.3 654.2 L 457.4 651.1 L 440.6 647.8 L 423.9 644.3 L 407.1 640.7 L 390.5 637.0 L 373.9 633.1 L 357.1 629.2 L 340.2 625.5 L 323.2 621.8 L 306.0 618.2 L 288.7 614.6 L 271.2 611.1 L 253.6 607.8 L 235.8 604.4 L 220.7 601.2 L 208.1 598.1 L 198.0 595.1 L 190.6 592.2 L 185.8 589.5 L 183.5 586.8 Z" fill="rgba(0,0,0,0.5)" filter="url(#landShadow)" transform="translate(6,12)"/>
  <path d="M 1158.3 64.5 L 1164.3 69.4 L 1170.4 74.5 L 1176.5 79.7 L 1182.8 85.1 L 1189.2 90.7 L 1195.6 96.5 L 1202.1 102.4 L 1208.8 108.5 L 1215.5 114.7 L 1222.1 120.7 L 1228.6 126.4 L 1235.0 131.8 L 1241.2 137.0 L 1247.4 141.8 L 1253.4 146.3 L 1259.3 150.6 L 1265.2 154.6 L 1271.1 158.8 L 1277.2 163.2 L 1283.4 167.8 L 1289.7 172.6 L 1296.2 177.6 L 1302.9 182.9 L 1309.6 188.3 L 1316.5 194.0 L 1321.9 198.4 L 1325.7 201.5 L 1328.0 203.3 L 1328.7 203.9 L 1327.8 203.2 L 1325.5 201.3 L 1321.5 198.0 L 1316.0 193.6 L 1310.3 188.8 L 1304.4 183.8 L 1298.3 178.5 L 1291.9 173.0 L 1285.3 167.2 L 1278.6 161.1 L 1271.5 154.7 L 1264.3 148.1 L 1257.2 141.8 L 1250.1 135.6 L 1243.1 129.7 L 1236.1 124.1 L 1229.3 118.6 L 1222.5 113.4 L 1215.8 108.4 L 1209.1 103.7 L 1202.5 98.9 L 1196.0 94.1 L 1189.6 89.2 L 1183.2 84.4 L 1177.0 79.5 L 1170.7 74.6 L 1164.6 69.7 L 1158.6 64.7 L 1154.0 61.0 L 1151.0 58.5 L 1149.4 57.2 L 1149.4 57.2 L 1150.8 58.4 L 1153.8 60.8 Z" fill="rgba(0,0,0,0.5)" filter="url(#landShadow)" transform="translate(6,12)"/>
  <path d="M 125.5 253.1 L 127.9 251.3 L 130.1 249.5 L 132.2 247.7 L 134.1 245.9 L 135.8 244.1 L 137.4 242.3 L 138.8 240.4 L 140.1 238.6 L 141.2 236.7 L 142.5 234.9 L 143.8 233.0 L 145.3 231.2 L 147.0 229.4 L 148.8 227.6 L 150.7 225.8 L 152.7 224.0 L 154.9 222.3 L 157.0 220.5 L 159.0 218.7 L 161.0 216.9 L 162.8 215.1 L 164.6 213.3 L 166.3 211.5 L 167.9 209.6 L 169.4 207.8 L 173.0 205.8 L 178.6 203.6 L 186.4 201.2 L 196.3 198.7 L 208.3 196.0 L 222.3 193.2 L 238.5 190.2 L 256.7 187.0 L 275.0 183.8 L 293.3 180.6 L 311.6 177.4 L 330.0 174.2 L 348.4 171.0 L 366.8 167.8 L 385.3 164.5 L 403.8 161.3 L 422.3 158.2 L 440.7 155.3 L 459.1 152.6 L 477.5 150.0 L 495.9 147.5 L 514.3 145.3 L 532.6 143.1 L 550.9 141.2 L 569.3 139.0 L 587.7 136.5 L 606.2 133.8 L 624.7 130.8 L 643.3 127.5 L 662.0 124.0 L 680.7 120.3 L 699.5 116.3 L 716.0 113.1 L 730.2 110.8 L 742.1 109.3 L 751.7 108.6 L 759.0 108.8 L 764.0 109.8 L 766.6 111.7 L 767.0 114.4 L 767.7 116.9 L 768.7 119.2 L 770.0 121.3 L 771.6 123.2 L 773.5 124.9 L 775.7 126.3 L 778.2 127.6 L 781.0 128.6 L 783.5 129.9 L 785.6 131.4 L 787.4 133.0 L 788.9 134.9 L 790.0 137.0 L 790.8 139.3 L 791.3 141.8 L 791.4 144.5 L 791.8 147.2 L 792.3 149.7 L 793.1 152.0 L 794.0 154.3 L 795.1 156.5 L 796.5 158.5 L 798.0 160.5 L 799.8 162.3 L 801.0 164.1 L 801.8 165.8 L 802.0 167.4 L 801.8 169.0 L 801.0 170.5 L 799.8 172.0 L 798.0 173.3 L 795.7 174.6 L 793.7 175.9 L 792.0 177.0 L 790.6 178.0 L 789.4 178.8 L 788.5 179.6 L 787.8 180.3 L 787.4 180.9 L 787.3 181.3 L 786.8 181.9 L 786.1 182.6 L 784.9 183.5 L 783.5 184.5 L 781.7 185.6 L 779.5 186.9 L 777.0 188.2 L 774.2 189.8 L 771.6 191.2 L 769.1 192.6 L 766.7 194.0 L 764.5 195.3 L 762.4 196.5 L 760.4 197.7 L 758.6 198.8 L 757.0 199.9 L 756.5 201.0 L 757.3 202.2 L 759.2 203.5 L 762.4 204.8 L 766.7 206.2 L 772.2 207.6 L 779.0 209.1 L 786.9 210.7 L 794.6 212.3 L 802.2 214.0 L 809.5 215.7 L 816.7 217.4 L 823.6 219.2 L 830.4 221.0 L 837.0 222.9 L 843.4 224.8 L 849.9 226.7 L 856.6 228.5 L 863.4 230.3 L 870.4 232.1 L 877.5 233.9 L 884.8 235.7 L 892.2 237.4 L 899.7 239.1 L 907.2 240.8 L 914.5 242.5 L 921.8 244.3 L 929.1 246.0 L 936.2 247.7 L 943.2 249.5 L 950.2 251.2 L 957.0 253.0 L 963.2 254.7 L 968.6 256.5 L 973.2 258.2 L 977.1 260.0 L 980.3 261.7 L 982.8 263.5 L 984.5 265.2 L 985.4 266.9 L 986.6 268.7 L 988.1 270.4 L 989.7 272.2 L 991.6 273.9 L 993.8 275.7 L 996.1 277.4 L 998.7 279.2 L 1001.6 280.9 L 1004.3 282.7 L 1007.0 284.5 L 1009.7 286.2 L 1012.2 288.0 L 1014.7 289.8 L 1017.1 291.6 L 1019.5 293.3 L 1021.7 295.1 L 1023.8 296.9 L 1025.8 298.7 L 1027.5 300.4 L 1029.1 302.1 L 1030.6 303.9 L 1031.8 305.6 L 1032.9 307.3 L 1033.8 309.0 L 1032.2 310.8 L 1028.1 312.8 L 1021.5 315.0 L 1012.4 317.3 L 1000.7 319.8 L 986.6 322.4 L 969.9 325.2 L 950.7 328.1 L 931.5 331.1 L 912.4 334.1 L 893.4 337.1 L 874.3 340.2 L 855.4 343.3 L 836.5 346.4 L 817.6 349.6 L 798.8 352.8 L 779.8 356.0 L 760.8 359.1 L 741.6 362.2 L 722.4 365.4 L 703.0 368.5 L 683.5 371.6 L 663.9 374.6 L 644.2 377.7 L 624.6 380.7 L 605.0 383.6 L 585.5 386.5 L 566.0 389.3 L 546.6 392.0 L 527.2 394.7 L 507.8 397.3 L 488.6 399.8 L 471.4 402.1 L 456.4 404.0 L 443.6 405.6 L 432.8 406.8 L 424.2 407.8 L 417.8 408.4 L 413.5 408.7 L 411.3 408.6 L 408.9 408.8 L 406.2 409.2 L 403.3 409.8 L 400.2 410.6 L 396.8 411.6 L 393.1 412.8 L 389.3 414.2 L 385.1 415.8 L 381.2 417.3 L 377.5 418.6 L 373.9 419.7 L 370.5 420.7 L 367.3 421.5 L 364.3 422.2 L 361.5 422.8 L 358.9 423.1 L 356.3 423.5 L 353.6 423.9 L 350.9 424.4 L 348.2 424.8 L 345.5 425.2 L 342.8 425.7 L 340.1 426.2 L 337.3 426.7 L 335.4 426.7 L 334.2 426.1 L 333.9 425.1 L 334.3 423.5 L 335.6 421.4 L 337.6 418.9 L 340.4 415.8 L 344.1 412.1 L 347.8 408.5 L 351.4 404.9 L 355.1 401.3 L 358.9 397.6 L 362.6 394.0 L 366.4 390.3 L 370.1 386.7 L 373.9 383.0 L 377.5 379.5 L 380.7 376.1 L 383.7 372.9 L 386.4 369.8 L 388.8 366.9 L 391.0 364.1 L 392.9 361.4 L 394.5 358.9 L 396.4 356.3 L 398.6 353.4 L 401.1 350.5 L 403.9 347.4 L 407.0 344.1 L 410.4 340.6 L 414.1 337.1 L 418.1 333.3 L 421.2 330.1 L 423.6 327.3 L 425.1 325.1 L 425.8 323.3 L 425.6 322.0 L 424.6 321.2 L 422.8 321.0 L 420.1 321.2 L 417.4 321.4 L 414.6 321.7 L 411.7 321.9 L 408.7 322.2 L 405.7 322.6 L 402.6 322.9 L 399.4 323.3 L 396.2 323.7 L 392.9 324.0 L 389.7 324.4 L 386.6 324.8 L 383.4 325.1 L 380.3 325.5 L 377.1 325.8 L 374.0 326.1 L 371.0 326.5 L 368.1 326.7 L 365.3 327.0 L 362.6 327.2 L 360.2 327.3 L 357.8 327.4 L 355.6 327.5 L 353.6 327.6 L 351.7 327.6 L 349.1 327.3 L 345.7 326.8 L 341.7 326.0 L 337.0 325.0 L 331.5 323.7 L 325.3 322.1 L 318.4 320.3 L 310.8 318.3 L 303.2 316.2 L 295.6 314.1 L 288.1 312.0 L 280.5 309.9 L 272.9 307.8 L 265.3 305.7 L 257.7 303.6 L 250.1 301.4 L 242.7 299.3 L 235.5 297.1 L 228.6 295.0 L 221.8 292.8 L 215.2 290.6 L 208.9 288.4 L 202.7 286.2 L 196.8 284.0 L 190.7 281.9 L 184.4 279.7 L 177.9 277.5 L 171.3 275.3 L 164.4 273.2 L 157.4 271.0 L 150.3 268.9 L 142.9 266.8 L 136.8 264.7 L 131.8 262.6 L 128.1 260.6 L 125.6 258.7 L 124.4 256.8 L 124.3 254.9 Z" fill="url(#land)" stroke="rgba(167,139,250,0.45)" stroke-width="2"/>
  <path d="M 125.5 253.1 L 127.9 251.3 L 130.1 249.5 L 132.2 247.7 L 134.1 245.9 L 135.8 244.1 L 137.4 242.3 L 138.8 240.4 L 140.1 238.6 L 141.2 236.7 L 142.5 234.9 L 143.8 233.0 L 145.3 231.2 L 147.0 229.4 L 148.8 227.6 L 150.7 225.8 L 152.7 224.0 L 154.9 222.3 L 157.0 220.5 L 159.0 218.7 L 161.0 216.9 L 162.8 215.1 L 164.6 213.3 L 166.3 211.5 L 167.9 209.6 L 169.4 207.8 L 173.0 205.8 L 178.6 203.6 L 186.4 201.2 L 196.3 198.7 L 208.3 196.0 L 222.3 193.2 L 238.5 190.2 L 256.7 187.0 L 275.0 183.8 L 293.3 180.6 L 311.6 177.4 L 330.0 174.2 L 348.4 171.0 L 366.8 167.8 L 385.3 164.5 L 403.8 161.3 L 422.3 158.2 L 440.7 155.3 L 459.1 152.6 L 477.5 150.0 L 495.9 147.5 L 514.3 145.3 L 532.6 143.1 L 550.9 141.2 L 569.3 139.0 L 587.7 136.5 L 606.2 133.8 L 624.7 130.8 L 643.3 127.5 L 662.0 124.0 L 680.7 120.3 L 699.5 116.3 L 716.0 113.1 L 730.2 110.8 L 742.1 109.3 L 751.7 108.6 L 759.0 108.8 L 764.0 109.8 L 766.6 111.7 L 767.0 114.4 L 767.7 116.9 L 768.7 119.2 L 770.0 121.3 L 771.6 123.2 L 773.5 124.9 L 775.7 126.3 L 778.2 127.6 L 781.0 128.6 L 783.5 129.9 L 785.6 131.4 L 787.4 133.0 L 788.9 134.9 L 790.0 137.0 L 790.8 139.3 L 791.3 141.8 L 791.4 144.5 L 791.8 147.2 L 792.3 149.7 L 793.1 152.0 L 794.0 154.3 L 795.1 156.5 L 796.5 158.5 L 798.0 160.5 L 799.8 162.3 L 801.0 164.1 L 801.8 165.8 L 802.0 167.4 L 801.8 169.0 L 801.0 170.5 L 799.8 172.0 L 798.0 173.3 L 795.7 174.6 L 793.7 175.9 L 792.0 177.0 L 790.6 178.0 L 789.4 178.8 L 788.5 179.6 L 787.8 180.3 L 787.4 180.9 L 787.3 181.3 L 786.8 181.9 L 786.1 182.6 L 784.9 183.5 L 783.5 184.5 L 781.7 185.6 L 779.5 186.9 L 777.0 188.2 L 774.2 189.8 L 771.6 191.2 L 769.1 192.6 L 766.7 194.0 L 764.5 195.3 L 762.4 196.5 L 760.4 197.7 L 758.6 198.8 L 757.0 199.9 L 756.5 201.0 L 757.3 202.2 L 759.2 203.5 L 762.4 204.8 L 766.7 206.2 L 772.2 207.6 L 779.0 209.1 L 786.9 210.7 L 794.6 212.3 L 802.2 214.0 L 809.5 215.7 L 816.7 217.4 L 823.6 219.2 L 830.4 221.0 L 837.0 222.9 L 843.4 224.8 L 849.9 226.7 L 856.6 228.5 L 863.4 230.3 L 870.4 232.1 L 877.5 233.9 L 884.8 235.7 L 892.2 237.4 L 899.7 239.1 L 907.2 240.8 L 914.5 242.5 L 921.8 244.3 L 929.1 246.0 L 936.2 247.7 L 943.2 249.5 L 950.2 251.2 L 957.0 253.0 L 963.2 254.7 L 968.6 256.5 L 973.2 258.2 L 977.1 260.0 L 980.3 261.7 L 982.8 263.5 L 984.5 265.2 L 985.4 266.9 L 986.6 268.7 L 988.1 270.4 L 989.7 272.2 L 991.6 273.9 L 993.8 275.7 L 996.1 277.4 L 998.7 279.2 L 1001.6 280.9 L 1004.3 282.7 L 1007.0 284.5 L 1009.7 286.2 L 1012.2 288.0 L 1014.7 289.8 L 1017.1 291.6 L 1019.5 293.3 L 1021.7 295.1 L 1023.8 296.9 L 1025.8 298.7 L 1027.5 300.4 L 1029.1 302.1 L 1030.6 303.9 L 1031.8 305.6 L 1032.9 307.3 L 1033.8 309.0 L 1032.2 310.8 L 1028.1 312.8 L 1021.5 315.0 L 1012.4 317.3 L 1000.7 319.8 L 986.6 322.4 L 969.9 325.2 L 950.7 328.1 L 931.5 331.1 L 912.4 334.1 L 893.4 337.1 L 874.3 340.2 L 855.4 343.3 L 836.5 346.4 L 817.6 349.6 L 798.8 352.8 L 779.8 356.0 L 760.8 359.1 L 741.6 362.2 L 722.4 365.4 L 703.0 368.5 L 683.5 371.6 L 663.9 374.6 L 644.2 377.7 L 624.6 380.7 L 605.0 383.6 L 585.5 386.5 L 566.0 389.3 L 546.6 392.0 L 527.2 394.7 L 507.8 397.3 L 488.6 399.8 L 471.4 402.1 L 456.4 404.0 L 443.6 405.6 L 432.8 406.8 L 424.2 407.8 L 417.8 408.4 L 413.5 408.7 L 411.3 408.6 L 408.9 408.8 L 406.2 409.2 L 403.3 409.8 L 400.2 410.6 L 396.8 411.6 L 393.1 412.8 L 389.3 414.2 L 385.1 415.8 L 381.2 417.3 L 377.5 418.6 L 373.9 419.7 L 370.5 420.7 L 367.3 421.5 L 364.3 422.2 L 361.5 422.8 L 358.9 423.1 L 356.3 423.5 L 353.6 423.9 L 350.9 424.4 L 348.2 424.8 L 345.5 425.2 L 342.8 425.7 L 340.1 426.2 L 337.3 426.7 L 335.4 426.7 L 334.2 426.1 L 333.9 425.1 L 334.3 423.5 L 335.6 421.4 L 337.6 418.9 L 340.4 415.8 L 344.1 412.1 L 347.8 408.5 L 351.4 404.9 L 355.1 401.3 L 358.9 397.6 L 362.6 394.0 L 366.4 390.3 L 370.1 386.7 L 373.9 383.0 L 377.5 379.5 L 380.7 376.1 L 383.7 372.9 L 386.4 369.8 L 388.8 366.9 L 391.0 364.1 L 392.9 361.4 L 394.5 358.9 L 396.4 356.3 L 398.6 353.4 L 401.1 350.5 L 403.9 347.4 L 407.0 344.1 L 410.4 340.6 L 414.1 337.1 L 418.1 333.3 L 421.2 330.1 L 423.6 327.3 L 425.1 325.1 L 425.8 323.3 L 425.6 322.0 L 424.6 321.2 L 422.8 321.0 L 420.1 321.2 L 417.4 321.4 L 414.6 321.7 L 411.7 321.9 L 408.7 322.2 L 405.7 322.6 L 402.6 322.9 L 399.4 323.3 L 396.2 323.7 L 392.9 324.0 L 389.7 324.4 L 386.6 324.8 L 383.4 325.1 L 380.3 325.5 L 377.1 325.8 L 374.0 326.1 L 371.0 326.5 L 368.1 326.7 L 365.3 327.0 L 362.6 327.2 L 360.2 327.3 L 357.8 327.4 L 355.6 327.5 L 353.6 327.6 L 351.7 327.6 L 349.1 327.3 L 345.7 326.8 L 341.7 326.0 L 337.0 325.0 L 331.5 323.7 L 325.3 322.1 L 318.4 320.3 L 310.8 318.3 L 303.2 316.2 L 295.6 314.1 L 288.1 312.0 L 280.5 309.9 L 272.9 307.8 L 265.3 305.7 L 257.7 303.6 L 250.1 301.4 L 242.7 299.3 L 235.5 297.1 L 228.6 295.0 L 221.8 292.8 L 215.2 290.6 L 208.9 288.4 L 202.7 286.2 L 196.8 284.0 L 190.7 281.9 L 184.4 279.7 L 177.9 277.5 L 171.3 275.3 L 164.4 273.2 L 157.4 271.0 L 150.3 268.9 L 142.9 266.8 L 136.8 264.7 L 131.8 262.6 L 128.1 260.6 L 125.6 258.7 L 124.4 256.8 L 124.3 254.9 Z" fill="none" stroke="rgba(255,255,255,0.05)" stroke-width="6"/>
  <path d="M 125.5 253.1 L 127.9 251.3 L 130.1 249.5 L 132.2 247.7 L 134.1 245.9 L 135.8 244.1 L 137.4 242.3 L 138.8 240.4 L 140.1 238.6 L 141.2 236.7 L 142.5 234.9 L 143.8 233.0 L 145.3 231.2 L 147.0 229.4 L 148.8 227.6 L 150.7 225.8 L 152.7 224.0 L 154.9 222.3 L 157.0 220.5 L 159.0 218.7 L 161.0 216.9 L 162.8 215.1 L 164.6 213.3 L 166.3 211.5 L 167.9 209.6 L 169.4 207.8 L 173.0 205.8 L 178.6 203.6 L 186.4 201.2 L 196.3 198.7 L 208.3 196.0 L 222.3 193.2 L 238.5 190.2 L 256.7 187.0 L 275.0 183.8 L 293.3 180.6 L 311.6 177.4 L 330.0 174.2 L 348.4 171.0 L 366.8 167.8 L 385.3 164.5 L 403.8 161.3 L 422.3 158.2 L 440.7 155.3 L 459.1 152.6 L 477.5 150.0 L 495.9 147.5 L 514.3 145.3 L 532.6 143.1 L 550.9 141.2 L 569.3 139.0 L 587.7 136.5 L 606.2 133.8 L 624.7 130.8 L 643.3 127.5 L 662.0 124.0 L 680.7 120.3 L 699.5 116.3 L 716.0 113.1 L 730.2 110.8 L 742.1 109.3 L 751.7 108.6 L 759.0 108.8 L 764.0 109.8 L 766.6 111.7 L 767.0 114.4 L 767.7 116.9 L 768.7 119.2 L 770.0 121.3 L 771.6 123.2 L 773.5 124.9 L 775.7 126.3 L 778.2 127.6 L 781.0 128.6 L 783.5 129.9 L 785.6 131.4 L 787.4 133.0 L 788.9 134.9 L 790.0 137.0 L 790.8 139.3 L 791.3 141.8 L 791.4 144.5 L 791.8 147.2 L 792.3 149.7 L 793.1 152.0 L 794.0 154.3 L 795.1 156.5 L 796.5 158.5 L 798.0 160.5 L 799.8 162.3 L 801.0 164.1 L 801.8 165.8 L 802.0 167.4 L 801.8 169.0 L 801.0 170.5 L 799.8 172.0 L 798.0 173.3 L 795.7 174.6 L 793.7 175.9 L 792.0 177.0 L 790.6 178.0 L 789.4 178.8 L 788.5 179.6 L 787.8 180.3 L 787.4 180.9 L 787.3 181.3 L 786.8 181.9 L 786.1 182.6 L 784.9 183.5 L 783.5 184.5 L 781.7 185.6 L 779.5 186.9 L 777.0 188.2 L 774.2 189.8 L 771.6 191.2 L 769.1 192.6 L 766.7 194.0 L 764.5 195.3 L 762.4 196.5 L 760.4 197.7 L 758.6 198.8 L 757.0 199.9 L 756.5 201.0 L 757.3 202.2 L 759.2 203.5 L 762.4 204.8 L 766.7 206.2 L 772.2 207.6 L 779.0 209.1 L 786.9 210.7 L 794.6 212.3 L 802.2 214.0 L 809.5 215.7 L 816.7 217.4 L 823.6 219.2 L 830.4 221.0 L 837.0 222.9 L 843.4 224.8 L 849.9 226.7 L 856.6 228.5 L 863.4 230.3 L 870.4 232.1 L 877.5 233.9 L 884.8 235.7 L 892.2 237.4 L 899.7 239.1 L 907.2 240.8 L 914.5 242.5 L 921.8 244.3 L 929.1 246.0 L 936.2 247.7 L 943.2 249.5 L 950.2 251.2 L 957.0 253.0 L 963.2 254.7 L 968.6 256.5 L 973.2 258.2 L 977.1 260.0 L 980.3 261.7 L 982.8 263.5 L 984.5 265.2 L 985.4 266.9 L 986.6 268.7 L 988.1 270.4 L 989.7 272.2 L 991.6 273.9 L 993.8 275.7 L 996.1 277.4 L 998.7 279.2 L 1001.6 280.9 L 1004.3 282.7 L 1007.0 284.5 L 1009.7 286.2 L 1012.2 288.0 L 1014.7 289.8 L 1017.1 291.6 L 1019.5 293.3 L 1021.7 295.1 L 1023.8 296.9 L 1025.8 298.7 L 1027.5 300.4 L 1029.1 302.1 L 1030.6 303.9 L 1031.8 305.6 L 1032.9 307.3 L 1033.8 309.0 L 1032.2 310.8 L 1028.1 312.8 L 1021.5 315.0 L 1012.4 317.3 L 1000.7 319.8 L 986.6 322.4 L 969.9 325.2 L 950.7 328.1 L 931.5 331.1 L 912.4 334.1 L 893.4 337.1 L 874.3 340.2 L 855.4 343.3 L 836.5 346.4 L 817.6 349.6 L 798.8 352.8 L 779.8 356.0 L 760.8 359.1 L 741.6 362.2 L 722.4 365.4 L 703.0 368.5 L 683.5 371.6 L 663.9 374.6 L 644.2 377.7 L 624.6 380.7 L 605.0 383.6 L 585.5 386.5 L 566.0 389.3 L 546.6 392.0 L 527.2 394.7 L 507.8 397.3 L 488.6 399.8 L 471.4 402.1 L 456.4 404.0 L 443.6 405.6 L 432.8 406.8 L 424.2 407.8 L 417.8 408.4 L 413.5 408.7 L 411.3 408.6 L 408.9 408.8 L 406.2 409.2 L 403.3 409.8 L 400.2 410.6 L 396.8 411.6 L 393.1 412.8 L 389.3 414.2 L 385.1 415.8 L 381.2 417.3 L 377.5 418.6 L 373.9 419.7 L 370.5 420.7 L 367.3 421.5 L 364.3 422.2 L 361.5 422.8 L 358.9 423.1 L 356.3 423.5 L 353.6 423.9 L 350.9 424.4 L 348.2 424.8 L 345.5 425.2 L 342.8 425.7 L 340.1 426.2 L 337.3 426.7 L 335.4 426.7 L 334.2 426.1 L 333.9 425.1 L 334.3 423.5 L 335.6 421.4 L 337.6 418.9 L 340.4 415.8 L 344.1 412.1 L 347.8 408.5 L 351.4 404.9 L 355.1 401.3 L 358.9 397.6 L 362.6 394.0 L 366.4 390.3 L 370.1 386.7 L 373.9 383.0 L 377.5 379.5 L 380.7 376.1 L 383.7 372.9 L 386.4 369.8 L 388.8 366.9 L 391.0 364.1 L 392.9 361.4 L 394.5 358.9 L 396.4 356.3 L 398.6 353.4 L 401.1 350.5 L 403.9 347.4 L 407.0 344.1 L 410.4 340.6 L 414.1 337.1 L 418.1 333.3 L 421.2 330.1 L 423.6 327.3 L 425.1 325.1 L 425.8 323.3 L 425.6 322.0 L 424.6 321.2 L 422.8 321.0 L 420.1 321.2 L 417.4 321.4 L 414.6 321.7 L 411.7 321.9 L 408.7 322.2 L 405.7 322.6 L 402.6 322.9 L 399.4 323.3 L 396.2 323.7 L 392.9 324.0 L 389.7 324.4 L 386.6 324.8 L 383.4 325.1 L 380.3 325.5 L 377.1 325.8 L 374.0 326.1 L 371.0 326.5 L 368.1 326.7 L 365.3 327.0 L 362.6 327.2 L 360.2 327.3 L 357.8 327.4 L 355.6 327.5 L 353.6 327.6 L 351.7 327.6 L 349.1 327.3 L 345.7 326.8 L 341.7 326.0 L 337.0 325.0 L 331.5 323.7 L 325.3 322.1 L 318.4 320.3 L 310.8 318.3 L 303.2 316.2 L 295.6 314.1 L 288.1 312.0 L 280.5 309.9 L 272.9 307.8 L 265.3 305.7 L 257.7 303.6 L 250.1 301.4 L 242.7 299.3 L 235.5 297.1 L 228.6 295.0 L 221.8 292.8 L 215.2 290.6 L 208.9 288.4 L 202.7 286.2 L 196.8 284.0 L 190.7 281.9 L 184.4 279.7 L 177.9 277.5 L 171.3 275.3 L 164.4 273.2 L 157.4 271.0 L 150.3 268.9 L 142.9 266.8 L 136.8 264.7 L 131.8 262.6 L 128.1 260.6 L 125.6 258.7 L 124.4 256.8 L 124.3 254.9 Z" fill="none" stroke="rgba(167,139,250,0.18)" stroke-width="10" filter="url(#softGlow)"/>
  <path d="M 924.4 449.6 L 934.0 446.5 L 943.7 443.3 L 953.4 440.2 L 963.2 437.1 L 973.0 434.0 L 982.9 431.0 L 992.8 428.0 L 1002.7 425.0 L 1012.7 422.0 L 1022.7 419.0 L 1032.7 416.0 L 1042.6 412.8 L 1052.6 409.6 L 1062.5 406.4 L 1072.4 403.1 L 1082.3 399.7 L 1092.1 396.3 L 1102.0 392.9 L 1111.8 389.6 L 1121.6 386.3 L 1131.4 383.1 L 1141.2 379.9 L 1150.9 376.8 L 1160.6 373.7 L 1170.3 370.7 L 1178.2 369.0 L 1184.4 368.7 L 1188.9 369.7 L 1191.6 372.1 L 1192.6 375.8 L 1191.9 380.8 L 1189.4 387.2 L 1185.2 394.9 L 1181.2 402.6 L 1177.5 410.2 L 1174.0 417.8 L 1170.7 425.4 L 1167.7 432.9 L 1164.9 440.4 L 1162.4 447.9 L 1160.1 455.3 L 1157.6 462.8 L 1155.0 470.4 L 1152.1 478.0 L 1149.0 485.6 L 1145.7 493.4 L 1142.3 501.2 L 1138.6 509.1 L 1134.7 517.0 L 1130.9 524.8 L 1127.0 532.5 L 1123.0 540.0 L 1119.1 547.4 L 1115.1 554.7 L 1111.2 561.9 L 1107.2 568.9 L 1103.1 575.8 L 1098.8 581.3 L 1094.2 585.5 L 1089.4 588.3 L 1084.2 589.8 L 1078.8 589.9 L 1073.1 588.6 L 1067.1 585.9 L 1060.8 581.9 L 1054.6 577.8 L 1048.5 573.4 L 1042.5 569.0 L 1036.6 564.4 L 1030.8 559.6 L 1025.0 554.7 L 1019.3 549.6 L 1013.7 544.4 L 1008.0 539.3 L 1002.1 534.5 L 996.1 529.8 L 989.9 525.3 L 983.5 520.9 L 977.1 516.8 L 970.4 512.8 L 963.6 509.0 L 956.9 505.1 L 950.3 501.2 L 943.7 497.2 L 937.3 493.1 L 930.9 488.9 L 924.5 484.7 L 918.3 480.4 L 912.1 476.1 L 908.0 471.9 L 905.8 467.8 L 905.5 463.9 L 907.3 460.1 L 911.0 456.5 L 916.7 453.0 Z" fill="url(#land)" stroke="rgba(167,139,250,0.45)" stroke-width="2"/>
  <path d="M 924.4 449.6 L 934.0 446.5 L 943.7 443.3 L 953.4 440.2 L 963.2 437.1 L 973.0 434.0 L 982.9 431.0 L 992.8 428.0 L 1002.7 425.0 L 1012.7 422.0 L 1022.7 419.0 L 1032.7 416.0 L 1042.6 412.8 L 1052.6 409.6 L 1062.5 406.4 L 1072.4 403.1 L 1082.3 399.7 L 1092.1 396.3 L 1102.0 392.9 L 1111.8 389.6 L 1121.6 386.3 L 1131.4 383.1 L 1141.2 379.9 L 1150.9 376.8 L 1160.6 373.7 L 1170.3 370.7 L 1178.2 369.0 L 1184.4 368.7 L 1188.9 369.7 L 1191.6 372.1 L 1192.6 375.8 L 1191.9 380.8 L 1189.4 387.2 L 1185.2 394.9 L 1181.2 402.6 L 1177.5 410.2 L 1174.0 417.8 L 1170.7 425.4 L 1167.7 432.9 L 1164.9 440.4 L 1162.4 447.9 L 1160.1 455.3 L 1157.6 462.8 L 1155.0 470.4 L 1152.1 478.0 L 1149.0 485.6 L 1145.7 493.4 L 1142.3 501.2 L 1138.6 509.1 L 1134.7 517.0 L 1130.9 524.8 L 1127.0 532.5 L 1123.0 540.0 L 1119.1 547.4 L 1115.1 554.7 L 1111.2 561.9 L 1107.2 568.9 L 1103.1 575.8 L 1098.8 581.3 L 1094.2 585.5 L 1089.4 588.3 L 1084.2 589.8 L 1078.8 589.9 L 1073.1 588.6 L 1067.1 585.9 L 1060.8 581.9 L 1054.6 577.8 L 1048.5 573.4 L 1042.5 569.0 L 1036.6 564.4 L 1030.8 559.6 L 1025.0 554.7 L 1019.3 549.6 L 1013.7 544.4 L 1008.0 539.3 L 1002.1 534.5 L 996.1 529.8 L 989.9 525.3 L 983.5 520.9 L 977.1 516.8 L 970.4 512.8 L 963.6 509.0 L 956.9 505.1 L 950.3 501.2 L 943.7 497.2 L 937.3 493.1 L 930.9 488.9 L 924.5 484.7 L 918.3 480.4 L 912.1 476.1 L 908.0 471.9 L 905.8 467.8 L 905.5 463.9 L 907.3 460.1 L 911.0 456.5 L 916.7 453.0 Z" fill="none" stroke="rgba(255,255,255,0.05)" stroke-width="6"/>
  <path d="M 924.4 449.6 L 934.0 446.5 L 943.7 443.3 L 953.4 440.2 L 963.2 437.1 L 973.0 434.0 L 982.9 431.0 L 992.8 428.0 L 1002.7 425.0 L 1012.7 422.0 L 1022.7 419.0 L 1032.7 416.0 L 1042.6 412.8 L 1052.6 409.6 L 1062.5 406.4 L 1072.4 403.1 L 1082.3 399.7 L 1092.1 396.3 L 1102.0 392.9 L 1111.8 389.6 L 1121.6 386.3 L 1131.4 383.1 L 1141.2 379.9 L 1150.9 376.8 L 1160.6 373.7 L 1170.3 370.7 L 1178.2 369.0 L 1184.4 368.7 L 1188.9 369.7 L 1191.6 372.1 L 1192.6 375.8 L 1191.9 380.8 L 1189.4 387.2 L 1185.2 394.9 L 1181.2 402.6 L 1177.5 410.2 L 1174.0 417.8 L 1170.7 425.4 L 1167.7 432.9 L 1164.9 440.4 L 1162.4 447.9 L 1160.1 455.3 L 1157.6 462.8 L 1155.0 470.4 L 1152.1 478.0 L 1149.0 485.6 L 1145.7 493.4 L 1142.3 501.2 L 1138.6 509.1 L 1134.7 517.0 L 1130.9 524.8 L 1127.0 532.5 L 1123.0 540.0 L 1119.1 547.4 L 1115.1 554.7 L 1111.2 561.9 L 1107.2 568.9 L 1103.1 575.8 L 1098.8 581.3 L 1094.2 585.5 L 1089.4 588.3 L 1084.2 589.8 L 1078.8 589.9 L 1073.1 588.6 L 1067.1 585.9 L 1060.8 581.9 L 1054.6 577.8 L 1048.5 573.4 L 1042.5 569.0 L 1036.6 564.4 L 1030.8 559.6 L 1025.0 554.7 L 1019.3 549.6 L 1013.7 544.4 L 1008.0 539.3 L 1002.1 534.5 L 996.1 529.8 L 989.9 525.3 L 983.5 520.9 L 977.1 516.8 L 970.4 512.8 L 963.6 509.0 L 956.9 505.1 L 950.3 501.2 L 943.7 497.2 L 937.3 493.1 L 930.9 488.9 L 924.5 484.7 L 918.3 480.4 L 912.1 476.1 L 908.0 471.9 L 905.8 467.8 L 905.5 463.9 L 907.3 460.1 L 911.0 456.5 L 916.7 453.0 Z" fill="none" stroke="rgba(167,139,250,0.18)" stroke-width="10" filter="url(#softGlow)"/>
  <path d="M 183.8 584.2 L 186.7 581.8 L 189.5 579.3 L 192.2 576.8 L 194.9 574.3 L 197.5 571.8 L 200.1 569.2 L 202.5 566.7 L 204.9 564.1 L 207.2 561.5 L 209.6 558.9 L 212.0 556.2 L 214.4 553.6 L 216.9 551.0 L 219.4 548.4 L 222.0 545.7 L 224.6 543.1 L 227.2 540.4 L 230.0 537.9 L 233.0 535.4 L 236.1 532.9 L 239.4 530.6 L 242.8 528.3 L 246.4 526.1 L 250.1 524.0 L 254.0 521.9 L 259.0 520.6 L 264.9 520.1 L 271.9 520.4 L 279.9 521.5 L 288.9 523.3 L 298.9 526.0 L 310.0 529.4 L 322.1 533.7 L 334.1 537.7 L 346.0 541.7 L 357.8 545.4 L 369.6 549.1 L 381.2 552.6 L 392.8 555.9 L 404.3 559.1 L 415.7 562.2 L 427.2 565.4 L 438.8 568.8 L 450.5 572.4 L 462.2 576.2 L 474.1 580.2 L 486.0 584.3 L 498.0 588.6 L 510.1 593.1 L 522.1 597.6 L 534.0 601.9 L 545.8 606.2 L 557.4 610.5 L 569.0 614.6 L 580.5 618.7 L 591.8 622.8 L 603.1 626.7 L 613.3 630.4 L 622.5 633.9 L 630.6 637.1 L 637.7 640.0 L 643.7 642.7 L 648.7 645.1 L 652.6 647.3 L 655.5 649.2 L 658.3 651.1 L 660.8 652.9 L 663.1 654.7 L 665.2 656.4 L 667.1 658.1 L 668.9 659.8 L 670.4 661.4 L 671.7 663.0 L 673.2 664.6 L 674.8 666.2 L 676.5 667.8 L 678.4 669.5 L 680.4 671.2 L 682.5 672.9 L 684.8 674.7 L 687.1 676.4 L 689.7 678.2 L 692.3 680.1 L 695.2 682.0 L 698.1 683.9 L 701.3 685.9 L 704.5 688.0 L 708.0 690.1 L 711.5 692.2 L 712.5 693.6 L 710.8 694.4 L 706.5 694.4 L 699.6 693.7 L 690.0 692.4 L 677.8 690.3 L 663.0 687.6 L 645.6 684.2 L 628.2 680.8 L 610.9 677.6 L 593.6 674.4 L 576.4 671.3 L 559.2 668.4 L 542.1 665.5 L 525.1 662.7 L 508.1 660.0 L 491.2 657.2 L 474.3 654.2 L 457.4 651.1 L 440.6 647.8 L 423.9 644.3 L 407.1 640.7 L 390.5 637.0 L 373.9 633.1 L 357.1 629.2 L 340.2 625.5 L 323.2 621.8 L 306.0 618.2 L 288.7 614.6 L 271.2 611.1 L 253.6 607.8 L 235.8 604.4 L 220.7 601.2 L 208.1 598.1 L 198.0 595.1 L 190.6 592.2 L 185.8 589.5 L 183.5 586.8 Z" fill="url(#land)" stroke="rgba(167,139,250,0.45)" stroke-width="2"/>
  <path d="M 183.8 584.2 L 186.7 581.8 L 189.5 579.3 L 192.2 576.8 L 194.9 574.3 L 197.5 571.8 L 200.1 569.2 L 202.5 566.7 L 204.9 564.1 L 207.2 561.5 L 209.6 558.9 L 212.0 556.2 L 214.4 553.6 L 216.9 551.0 L 219.4 548.4 L 222.0 545.7 L 224.6 543.1 L 227.2 540.4 L 230.0 537.9 L 233.0 535.4 L 236.1 532.9 L 239.4 530.6 L 242.8 528.3 L 246.4 526.1 L 250.1 524.0 L 254.0 521.9 L 259.0 520.6 L 264.9 520.1 L 271.9 520.4 L 279.9 521.5 L 288.9 523.3 L 298.9 526.0 L 310.0 529.4 L 322.1 533.7 L 334.1 537.7 L 346.0 541.7 L 357.8 545.4 L 369.6 549.1 L 381.2 552.6 L 392.8 555.9 L 404.3 559.1 L 415.7 562.2 L 427.2 565.4 L 438.8 568.8 L 450.5 572.4 L 462.2 576.2 L 474.1 580.2 L 486.0 584.3 L 498.0 588.6 L 510.1 593.1 L 522.1 597.6 L 534.0 601.9 L 545.8 606.2 L 557.4 610.5 L 569.0 614.6 L 580.5 618.7 L 591.8 622.8 L 603.1 626.7 L 613.3 630.4 L 622.5 633.9 L 630.6 637.1 L 637.7 640.0 L 643.7 642.7 L 648.7 645.1 L 652.6 647.3 L 655.5 649.2 L 658.3 651.1 L 660.8 652.9 L 663.1 654.7 L 665.2 656.4 L 667.1 658.1 L 668.9 659.8 L 670.4 661.4 L 671.7 663.0 L 673.2 664.6 L 674.8 666.2 L 676.5 667.8 L 678.4 669.5 L 680.4 671.2 L 682.5 672.9 L 684.8 674.7 L 687.1 676.4 L 689.7 678.2 L 692.3 680.1 L 695.2 682.0 L 698.1 683.9 L 701.3 685.9 L 704.5 688.0 L 708.0 690.1 L 711.5 692.2 L 712.5 693.6 L 710.8 694.4 L 706.5 694.4 L 699.6 693.7 L 690.0 692.4 L 677.8 690.3 L 663.0 687.6 L 645.6 684.2 L 628.2 680.8 L 610.9 677.6 L 593.6 674.4 L 576.4 671.3 L 559.2 668.4 L 542.1 665.5 L 525.1 662.7 L 508.1 660.0 L 491.2 657.2 L 474.3 654.2 L 457.4 651.1 L 440.6 647.8 L 423.9 644.3 L 407.1 640.7 L 390.5 637.0 L 373.9 633.1 L 357.1 629.2 L 340.2 625.5 L 323.2 621.8 L 306.0 618.2 L 288.7 614.6 L 271.2 611.1 L 253.6 607.8 L 235.8 604.4 L 220.7 601.2 L 208.1 598.1 L 198.0 595.1 L 190.6 592.2 L 185.8 589.5 L 183.5 586.8 Z" fill="none" stroke="rgba(255,255,255,0.05)" stroke-width="6"/>
  <path d="M 183.8 584.2 L 186.7 581.8 L 189.5 579.3 L 192.2 576.8 L 194.9 574.3 L 197.5 571.8 L 200.1 569.2 L 202.5 566.7 L 204.9 564.1 L 207.2 561.5 L 209.6 558.9 L 212.0 556.2 L 214.4 553.6 L 216.9 551.0 L 219.4 548.4 L 222.0 545.7 L 224.6 543.1 L 227.2 540.4 L 230.0 537.9 L 233.0 535.4 L 236.1 532.9 L 239.4 530.6 L 242.8 528.3 L 246.4 526.1 L 250.1 524.0 L 254.0 521.9 L 259.0 520.6 L 264.9 520.1 L 271.9 520.4 L 279.9 521.5 L 288.9 523.3 L 298.9 526.0 L 310.0 529.4 L 322.1 533.7 L 334.1 537.7 L 346.0 541.7 L 357.8 545.4 L 369.6 549.1 L 381.2 552.6 L 392.8 555.9 L 404.3 559.1 L 415.7 562.2 L 427.2 565.4 L 438.8 568.8 L 450.5 572.4 L 462.2 576.2 L 474.1 580.2 L 486.0 584.3 L 498.0 588.6 L 510.1 593.1 L 522.1 597.6 L 534.0 601.9 L 545.8 606.2 L 557.4 610.5 L 569.0 614.6 L 580.5 618.7 L 591.8 622.8 L 603.1 626.7 L 613.3 630.4 L 622.5 633.9 L 630.6 637.1 L 637.7 640.0 L 643.7 642.7 L 648.7 645.1 L 652.6 647.3 L 655.5 649.2 L 658.3 651.1 L 660.8 652.9 L 663.1 654.7 L 665.2 656.4 L 667.1 658.1 L 668.9 659.8 L 670.4 661.4 L 671.7 663.0 L 673.2 664.6 L 674.8 666.2 L 676.5 667.8 L 678.4 669.5 L 680.4 671.2 L 682.5 672.9 L 684.8 674.7 L 687.1 676.4 L 689.7 678.2 L 692.3 680.1 L 695.2 682.0 L 698.1 683.9 L 701.3 685.9 L 704.5 688.0 L 708.0 690.1 L 711.5 692.2 L 712.5 693.6 L 710.8 694.4 L 706.5 694.4 L 699.6 693.7 L 690.0 692.4 L 677.8 690.3 L 663.0 687.6 L 645.6 684.2 L 628.2 680.8 L 610.9 677.6 L 593.6 674.4 L 576.4 671.3 L 559.2 668.4 L 542.1 665.5 L 525.1 662.7 L 508.1 660.0 L 491.2 657.2 L 474.3 654.2 L 457.4 651.1 L 440.6 647.8 L 423.9 644.3 L 407.1 640.7 L 390.5 637.0 L 373.9 633.1 L 357.1 629.2 L 340.2 625.5 L 323.2 621.8 L 306.0 618.2 L 288.7 614.6 L 271.2 611.1 L 253.6 607.8 L 235.8 604.4 L 220.7 601.2 L 208.1 598.1 L 198.0 595.1 L 190.6 592.2 L 185.8 589.5 L 183.5 586.8 Z" fill="none" stroke="rgba(167,139,250,0.18)" stroke-width="10" filter="url(#softGlow)"/>
  <path d="M 1158.3 64.5 L 1164.3 69.4 L 1170.4 74.5 L 1176.5 79.7 L 1182.8 85.1 L 1189.2 90.7 L 1195.6 96.5 L 1202.1 102.4 L 1208.8 108.5 L 1215.5 114.7 L 1222.1 120.7 L 1228.6 126.4 L 1235.0 131.8 L 1241.2 137.0 L 1247.4 141.8 L 1253.4 146.3 L 1259.3 150.6 L 1265.2 154.6 L 1271.1 158.8 L 1277.2 163.2 L 1283.4 167.8 L 1289.7 172.6 L 1296.2 177.6 L 1302.9 182.9 L 1309.6 188.3 L 1316.5 194.0 L 1321.9 198.4 L 1325.7 201.5 L 1328.0 203.3 L 1328.7 203.9 L 1327.8 203.2 L 1325.5 201.3 L 1321.5 198.0 L 1316.0 193.6 L 1310.3 188.8 L 1304.4 183.8 L 1298.3 178.5 L 1291.9 173.0 L 1285.3 167.2 L 1278.6 161.1 L 1271.5 154.7 L 1264.3 148.1 L 1257.2 141.8 L 1250.1 135.6 L 1243.1 129.7 L 1236.1 124.1 L 1229.3 118.6 L 1222.5 113.4 L 1215.8 108.4 L 1209.1 103.7 L 1202.5 98.9 L 1196.0 94.1 L 1189.6 89.2 L 1183.2 84.4 L 1177.0 79.5 L 1170.7 74.6 L 1164.6 69.7 L 1158.6 64.7 L 1154.0 61.0 L 1151.0 58.5 L 1149.4 57.2 L 1149.4 57.2 L 1150.8 58.4 L 1153.8 60.8 Z" fill="url(#riftLand)" stroke="rgba(167,139,250,0.65)" stroke-width="2"/>
  <path d="M 1158.3 64.5 L 1164.3 69.4 L 1170.4 74.5 L 1176.5 79.7 L 1182.8 85.1 L 1189.2 90.7 L 1195.6 96.5 L 1202.1 102.4 L 1208.8 108.5 L 1215.5 114.7 L 1222.1 120.7 L 1228.6 126.4 L 1235.0 131.8 L 1241.2 137.0 L 1247.4 141.8 L 1253.4 146.3 L 1259.3 150.6 L 1265.2 154.6 L 1271.1 158.8 L 1277.2 163.2 L 1283.4 167.8 L 1289.7 172.6 L 1296.2 177.6 L 1302.9 182.9 L 1309.6 188.3 L 1316.5 194.0 L 1321.9 198.4 L 1325.7 201.5 L 1328.0 203.3 L 1328.7 203.9 L 1327.8 203.2 L 1325.5 201.3 L 1321.5 198.0 L 1316.0 193.6 L 1310.3 188.8 L 1304.4 183.8 L 1298.3 178.5 L 1291.9 173.0 L 1285.3 167.2 L 1278.6 161.1 L 1271.5 154.7 L 1264.3 148.1 L 1257.2 141.8 L 1250.1 135.6 L 1243.1 129.7 L 1236.1 124.1 L 1229.3 118.6 L 1222.5 113.4 L 1215.8 108.4 L 1209.1 103.7 L 1202.5 98.9 L 1196.0 94.1 L 1189.6 89.2 L 1183.2 84.4 L 1177.0 79.5 L 1170.7 74.6 L 1164.6 69.7 L 1158.6 64.7 L 1154.0 61.0 L 1151.0 58.5 L 1149.4 57.2 L 1149.4 57.2 L 1150.8 58.4 L 1153.8 60.8 Z" fill="none" stroke="rgba(255,255,255,0.05)" stroke-width="6"/>
  <path d="M 1158.3 64.5 L 1164.3 69.4 L 1170.4 74.5 L 1176.5 79.7 L 1182.8 85.1 L 1189.2 90.7 L 1195.6 96.5 L 1202.1 102.4 L 1208.8 108.5 L 1215.5 114.7 L 1222.1 120.7 L 1228.6 126.4 L 1235.0 131.8 L 1241.2 137.0 L 1247.4 141.8 L 1253.4 146.3 L 1259.3 150.6 L 1265.2 154.6 L 1271.1 158.8 L 1277.2 163.2 L 1283.4 167.8 L 1289.7 172.6 L 1296.2 177.6 L 1302.9 182.9 L 1309.6 188.3 L 1316.5 194.0 L 1321.9 198.4 L 1325.7 201.5 L 1328.0 203.3 L 1328.7 203.9 L 1327.8 203.2 L 1325.5 201.3 L 1321.5 198.0 L 1316.0 193.6 L 1310.3 188.8 L 1304.4 183.8 L 1298.3 178.5 L 1291.9 173.0 L 1285.3 167.2 L 1278.6 161.1 L 1271.5 154.7 L 1264.3 148.1 L 1257.2 141.8 L 1250.1 135.6 L 1243.1 129.7 L 1236.1 124.1 L 1229.3 118.6 L 1222.5 113.4 L 1215.8 108.4 L 1209.1 103.7 L 1202.5 98.9 L 1196.0 94.1 L 1189.6 89.2 L 1183.2 84.4 L 1177.0 79.5 L 1170.7 74.6 L 1164.6 69.7 L 1158.6 64.7 L 1154.0 61.0 L 1151.0 58.5 L 1149.4 57.2 L 1149.4 57.2 L 1150.8 58.4 L 1153.8 60.8 Z" fill="none" stroke="rgba(167,139,250,0.18)" stroke-width="10" filter="url(#softGlow)"/>
<path d="M 414.7 296.3 L 409.3 307.3 L 420.1 307.3 Z" fill="rgba(130,170,118,0.32)" stroke="rgba(160,200,148,0.37)" stroke-width="0.6"/><path d="M 422.4 290.8 L 417.0 301.8 L 427.8 301.8 Z" fill="rgba(130,170,118,0.32)" stroke="rgba(160,200,148,0.37)" stroke-width="0.6"/><path d="M 430.1 296.3 L 424.7 307.3 L 435.5 307.3 Z" fill="rgba(130,170,118,0.32)" stroke="rgba(160,200,148,0.37)" stroke-width="0.6"/>
<path d="M 386.5 373.1 L 381.2 384.1 L 391.9 384.1 Z" fill="rgba(130,170,118,0.32)" stroke="rgba(160,200,148,0.37)" stroke-width="0.6"/><path d="M 394.2 367.6 L 388.9 378.6 L 399.6 378.6 Z" fill="rgba(130,170,118,0.32)" stroke="rgba(160,200,148,0.37)" stroke-width="0.6"/><path d="M 401.9 373.1 L 396.6 384.1 L 407.3 384.1 Z" fill="rgba(130,170,118,0.32)" stroke="rgba(160,200,148,0.37)" stroke-width="0.6"/>
<path d="M 499.2 280.9 L 493.8 292.0 L 504.5 292.0 Z" fill="rgba(130,170,118,0.32)" stroke="rgba(160,200,148,0.37)" stroke-width="0.6"/><path d="M 506.9 275.4 L 501.5 286.5 L 512.2 286.5 Z" fill="rgba(130,170,118,0.32)" stroke="rgba(160,200,148,0.37)" stroke-width="0.6"/><path d="M 514.6 280.9 L 509.2 292.0 L 519.9 292.0 Z" fill="rgba(130,170,118,0.32)" stroke="rgba(160,200,148,0.37)" stroke-width="0.6"/>
<path d="M 668.1 219.4 L 662.8 230.5 L 673.5 230.5 Z" fill="rgba(130,170,118,0.32)" stroke="rgba(160,200,148,0.37)" stroke-width="0.6"/><path d="M 675.8 213.9 L 670.5 225.0 L 681.2 225.0 Z" fill="rgba(130,170,118,0.32)" stroke="rgba(160,200,148,0.37)" stroke-width="0.6"/><path d="M 683.5 219.4 L 678.2 230.5 L 688.9 230.5 Z" fill="rgba(130,170,118,0.32)" stroke="rgba(160,200,148,0.37)" stroke-width="0.6"/>
<path d="M 724.5 188.7 L 719.1 199.8 L 729.8 199.8 Z" fill="rgba(130,170,118,0.32)" stroke="rgba(160,200,148,0.37)" stroke-width="0.6"/><path d="M 732.2 183.2 L 726.8 194.3 L 737.5 194.3 Z" fill="rgba(130,170,118,0.32)" stroke="rgba(160,200,148,0.37)" stroke-width="0.6"/><path d="M 739.9 188.7 L 734.5 199.8 L 745.2 199.8 Z" fill="rgba(130,170,118,0.32)" stroke="rgba(160,200,148,0.37)" stroke-width="0.6"/>
<path d="M 893.4 250.2 L 888.1 261.3 L 898.8 261.3 Z" fill="rgba(130,170,118,0.32)" stroke="rgba(160,200,148,0.37)" stroke-width="0.6"/><path d="M 901.1 244.7 L 895.8 255.8 L 906.5 255.8 Z" fill="rgba(130,170,118,0.32)" stroke="rgba(160,200,148,0.37)" stroke-width="0.6"/><path d="M 908.8 250.2 L 903.5 261.3 L 914.2 261.3 Z" fill="rgba(130,170,118,0.32)" stroke="rgba(160,200,148,0.37)" stroke-width="0.6"/>
<path d="M 936.0 307.8 L 950.3 287.8 L 957.4 297.8 L 963.9 284.9 L 978.9 307.8 Z" fill="rgba(210,205,225,0.32)" stroke="rgba(235,230,245,0.42000000000000004)" stroke-width="1"/>
<path d="M 245.7 204.1 L 240.4 215.2 L 251.1 215.2 Z" fill="rgba(130,170,118,0.32)" stroke="rgba(160,200,148,0.37)" stroke-width="0.6"/><path d="M 253.4 198.6 L 248.1 209.7 L 258.8 209.7 Z" fill="rgba(130,170,118,0.32)" stroke="rgba(160,200,148,0.37)" stroke-width="0.6"/><path d="M 261.1 204.1 L 255.8 215.2 L 266.5 215.2 Z" fill="rgba(130,170,118,0.32)" stroke="rgba(160,200,148,0.37)" stroke-width="0.6"/>
<path d="M 189.4 250.2 L 184.1 261.3 L 194.8 261.3 Z" fill="rgba(130,170,118,0.32)" stroke="rgba(160,200,148,0.37)" stroke-width="0.6"/><path d="M 197.1 244.7 L 191.8 255.8 L 202.5 255.8 Z" fill="rgba(130,170,118,0.32)" stroke="rgba(160,200,148,0.37)" stroke-width="0.6"/><path d="M 204.8 250.2 L 199.5 261.3 L 210.2 261.3 Z" fill="rgba(130,170,118,0.32)" stroke="rgba(160,200,148,0.37)" stroke-width="0.6"/>
<path d="M 977.9 449.8 L 972.5 460.9 L 983.3 460.9 Z" fill="rgba(130,170,118,0.32)" stroke="rgba(160,200,148,0.37)" stroke-width="0.6"/><path d="M 985.6 444.3 L 980.2 455.4 L 991.0 455.4 Z" fill="rgba(130,170,118,0.32)" stroke="rgba(160,200,148,0.37)" stroke-width="0.6"/><path d="M 993.3 449.8 L 987.9 460.9 L 998.7 460.9 Z" fill="rgba(130,170,118,0.32)" stroke="rgba(160,200,148,0.37)" stroke-width="0.6"/>
<path d="M 1048.6 507.5 L 1062.9 487.4 L 1070.1 497.4 L 1076.5 484.6 L 1091.5 507.5 Z" fill="rgba(210,205,225,0.32)" stroke="rgba(235,230,245,0.42000000000000004)" stroke-width="1"/>
<path d="M 316.5 553.5 L 330.8 533.5 L 337.9 543.5 L 344.4 530.7 L 359.4 553.5 Z" fill="rgba(210,205,225,0.32)" stroke="rgba(235,230,245,0.42000000000000004)" stroke-width="1"/>
<path d="M 245.7 588.1 L 240.4 599.2 L 251.1 599.2 Z" fill="rgba(130,170,118,0.32)" stroke="rgba(160,200,148,0.37)" stroke-width="0.6"/><path d="M 253.4 582.6 L 248.1 593.7 L 258.8 593.7 Z" fill="rgba(130,170,118,0.32)" stroke="rgba(160,200,148,0.37)" stroke-width="0.6"/><path d="M 261.1 588.1 L 255.8 599.2 L 266.5 599.2 Z" fill="rgba(130,170,118,0.32)" stroke="rgba(160,200,148,0.37)" stroke-width="0.6"/>
<path d="M 555.5 618.8 L 550.1 629.9 L 560.9 629.9 Z" fill="rgba(130,170,118,0.32)" stroke="rgba(160,200,148,0.37)" stroke-width="0.6"/><path d="M 563.2 613.3 L 557.8 624.4 L 568.6 624.4 Z" fill="rgba(130,170,118,0.32)" stroke="rgba(160,200,148,0.37)" stroke-width="0.6"/><path d="M 570.9 618.8 L 565.5 629.9 L 576.3 629.9 Z" fill="rgba(130,170,118,0.32)" stroke="rgba(160,200,148,0.37)" stroke-width="0.6"/>
<path d="M 640.0 664.9 L 634.6 676.0 L 645.3 676.0 Z" fill="rgba(130,170,118,0.32)" stroke="rgba(160,200,148,0.37)" stroke-width="0.6"/><path d="M 647.7 659.4 L 642.3 670.5 L 653.0 670.5 Z" fill="rgba(130,170,118,0.32)" stroke="rgba(160,200,148,0.37)" stroke-width="0.6"/><path d="M 655.4 664.9 L 650.0 676.0 L 660.7 676.0 Z" fill="rgba(130,170,118,0.32)" stroke="rgba(160,200,148,0.37)" stroke-width="0.6"/>
<path d="M 1249.2 139.2 L 1263.6 151.8 L 1258.2 159.0 L 1272.6 169.8 L 1269.0 155.4 L 1285.2 142.8" fill="none" stroke="rgba(167,139,250,0.6)" stroke-width="2" stroke-linecap="round" stroke-linejoin="round"/>
<path d="M 1192.9 93.1 L 1207.3 105.7 L 1201.9 112.9 L 1216.3 123.7 L 1212.7 109.3 L 1228.9 96.7" fill="none" stroke="rgba(167,139,250,0.6)" stroke-width="2" stroke-linecap="round" stroke-linejoin="round"/>
  <text x="563" y="110" text-anchor="middle" font-family="Georgia, serif" font-size="23" font-weight="700" letter-spacing="4" fill="rgba(235,230,250,0.7)" filter="url(#softGlow)">AETHERIS</text>
  <text x="1056" y="377" text-anchor="middle" font-family="Georgia, serif" font-size="23" font-weight="700" letter-spacing="4" fill="rgba(235,230,250,0.7)" filter="url(#softGlow)">NOCTARA</text>
  <text x="451" y="508" text-anchor="middle" font-family="Georgia, serif" font-size="23" font-weight="700" letter-spacing="4" fill="rgba(235,230,250,0.7)" filter="url(#softGlow)">VALDRIS</text>
  <text x="1239" y="68" text-anchor="middle" font-family="Georgia, serif" font-size="23" font-weight="700" letter-spacing="4" fill="rgba(235,230,250,0.7)" filter="url(#softGlow)">ECLIPSE REACH</text>
  <g transform="translate(72,72)" opacity="0.45">
    <circle cx="0" cy="0" r="36" fill="rgba(10,8,16,0.4)" stroke="rgba(167,139,250,0.5)" stroke-width="1"/>
    <circle cx="0" cy="0" r="2" fill="rgba(167,139,250,0.8)"/>
    <path d="M 0 -34 L 6 -6 L 0 0 L -6 -6 Z" fill="rgba(235,230,250,0.65)"/>
    <path d="M 0 34 L 6 6 L 0 0 L -6 6 Z" fill="rgba(167,139,250,0.35)"/>
    <path d="M -34 0 L -6 6 L 0 0 L -6 -6 Z" fill="rgba(167,139,250,0.3)"/>
    <path d="M 34 0 L 6 6 L 0 0 L 6 -6 Z" fill="rgba(167,139,250,0.3)"/>
    <text x="0" y="-44" text-anchor="middle" font-family="Georgia, serif" font-size="13" fill="rgba(235,230,250,0.6)">N</text>
  </g>
  <g transform="translate(20,20) rotate(0)" opacity="0.5"><path d="M0 0 L 70 0 M0 0 L0 70 M14 0 Q 36 0 36 22 M0 14 Q 0 36 22 36" fill="none" stroke="rgba(167,139,250,0.5)" stroke-width="1.5"/><circle cx="10" cy="10" r="2.2" fill="rgba(167,139,250,0.55)"/></g>
  <g transform="translate(1388,20) rotate(90)" opacity="0.5"><path d="M0 0 L 70 0 M0 0 L0 70 M14 0 Q 36 0 36 22 M0 14 Q 0 36 22 36" fill="none" stroke="rgba(167,139,250,0.5)" stroke-width="1.5"/><circle cx="10" cy="10" r="2.2" fill="rgba(167,139,250,0.55)"/></g>
  <g transform="translate(1388,748) rotate(180)" opacity="0.5"><path d="M0 0 L 70 0 M0 0 L0 70 M14 0 Q 36 0 36 22 M0 14 Q 0 36 22 36" fill="none" stroke="rgba(167,139,250,0.5)" stroke-width="1.5"/><circle cx="10" cy="10" r="2.2" fill="rgba(167,139,250,0.55)"/></g>
  <g transform="translate(20,748) rotate(270)" opacity="0.5"><path d="M0 0 L 70 0 M0 0 L0 70 M14 0 Q 36 0 36 22 M0 14 Q 0 36 22 36" fill="none" stroke="rgba(167,139,250,0.5)" stroke-width="1.5"/><circle cx="10" cy="10" r="2.2" fill="rgba(167,139,250,0.55)"/></g>
  <rect x="7" y="7" width="1394" height="754" fill="none" stroke="rgba(167,139,250,0.3)" stroke-width="2"/>
  <text x="704" y="744" text-anchor="middle" font-family="Georgia, serif" font-size="14" letter-spacing="5" fill="rgba(167,139,250,0.5)">THE KNOWN WORLD</text>
  <rect x="0" y="0" width="1408" height="768" fill="url(#vignette)"/>
</svg>